<?xml version="1.0" encoding="iso-8859-1"?>
<!-- Generator: Adobe Illustrator 18.1.1, SVG Export Plug-In . SVG Version: 6.00 Build 0)  -->
<svg version="1.1" id="Capa_1" xmlns="http://www.w3.org/2000/svg" xmlns:xlink="http://www.w3.org/1999/xlink" x="0px" y="0px"
	 viewBox="0 0 133.613 133.613" style="enable-background:new 0 0 133.613 133.613;" xml:space="preserve">
<g>
	<g>
		<path style="fill:#010002;" d="M116.91,70.387H63.825v-7.158h53.085V70.387z M116.91,44.737H63.825v7.158h53.085V44.737z
			 M14.412,89.756c-0.655-0.791-0.909-1.811-0.719-2.895l1.389-7.795c0.369-2.072,2.269-4.041,4.33-4.474l1.306-0.276V60.438
			c0-12.891,6.814-17.783,15.221-17.783S51.16,47.55,51.16,60.438v13.879l1.306,0.276c2.061,0.433,3.962,2.405,4.33,4.474
			l1.389,7.798c0.19,1.081-0.064,2.104-0.719,2.892c-0.659,0.784-1.621,1.217-2.716,1.217H17.128
			C16.033,90.965,15.067,90.532,14.412,89.756z M24.83,63.942c0.293,1.245,1.768,2.097,2.401,1.954
			c0.669,2.212,2.183,4.534,3.951,6.22c0.243,0.229,0.487,0.447,0.734,0.659c0.279,0.225,0.558,0.44,0.841,0.63l-6.045,1.27
			l3.339,3.79l3.976,4.52l0.984-4.52l0.143-0.637l-1.467-1.467l1.84-1.84l0.412-0.412l0.408,0.408l1.843,1.843l-1.467,1.46
			l0.143,0.644l1.024,4.695l4.015-4.695l3.246-3.797l-6.084-1.278c0.283-0.197,0.562-0.404,0.837-0.637
			c0.247-0.208,0.494-0.426,0.737-0.655c1.789-1.704,3.346-4.041,4.015-6.206c0.633,0.132,2.097-0.723,2.387-1.954
			c0.297-1.267,0.014-2.459-0.63-2.648c-0.197-0.054-0.394-0.007-0.594,0.1v-1.514h-6.982V53.71l-0.991,5.923H26.047v1.75
			c-0.2-0.107-0.397-0.15-0.591-0.1C24.812,61.49,24.529,62.671,24.83,63.942z M15.253,87.147c-0.107,0.608,0.025,1.17,0.372,1.589
			c0.351,0.419,0.884,0.651,1.503,0.651h7.322V85.39c0-0.437,0.354-0.791,0.791-0.791c0.44,0,0.795,0.354,0.795,0.791v3.998h19.809
			V85.39c0-0.437,0.354-0.791,0.791-0.791s0.791,0.354,0.791,0.791v3.998h7.322c0.619,0,1.152-0.229,1.503-0.651
			c0.351-0.419,0.483-0.981,0.372-1.589l-1.389-7.798c-0.254-1.432-1.675-2.902-3.099-3.207l-0.977-0.208l-4.245-0.895l-2.928,3.418
			l-7.315,8.557c-0.15,0.172-0.365,0.276-0.598,0.276h-0.004c-0.225,0-0.444-0.097-0.594-0.268l-7.537-8.564l-3.006-3.411
			l-4.219,0.888l-0.977,0.208c-1.424,0.304-2.842,1.772-3.099,3.207L15.253,87.147z M116.91,81.725H63.825v7.158h53.085V81.725z
			 M133.613,23.264v87.084H0V23.264H133.613z M126.455,30.422H7.158v72.769h119.297V30.422z"/>
	</g>
</g>
<g>
</g>
<g>
</g>
<g>
</g>
<g>
</g>
<g>
</g>
<g>
</g>
<g>
</g>
<g>
</g>
<g>
</g>
<g>
</g>
<g>
</g>
<g>
</g>
<g>
</g>
<g>
</g>
<g>
</g>
</svg>
